<svg width="20" height="20" viewBox="0 0 20 20" fill="none" xmlns="http://www.w3.org/2000/svg">
<path d="M12.5 10.5083H13V10.0083V8.84167H13.6666V10.8417C13.6666 11.0264 13.518 11.175 13.3333 11.175H6.66665C6.48196 11.175 6.33331 11.0264 6.33331 10.8417V8.84167H6.99998V10.0083V10.5083H7.49998H12.5Z" fill="#2C2C2C" stroke="#2C2C2C"/>
<path d="M2.55291 5.23895L2.5418 5.23102L4.49129 2.63889L4.49178 2.63823C4.70847 2.34912 5.05819 2.17419 5.42335 2.17419H14.59C14.9563 2.17419 15.3069 2.35045 15.525 2.64305L15.5254 2.64354L17.4718 5.24771L17.4622 5.25509L17.7552 5.64977C17.8152 5.73054 17.8334 5.79167 17.8334 5.84169V15.0084C17.8334 15.6514 17.3097 16.175 16.6667 16.175H3.33335C2.69033 16.175 2.16669 15.6514 2.16669 15.0084V5.84169C2.16669 5.79138 2.18523 5.72919 2.24585 5.64836L2.55291 5.23895ZM5.42335 2.84169H5.17375L5.02374 3.04118L3.7704 4.70785L3.16842 5.50836H4.17002H15.8359H16.8339L16.2363 4.709L14.9905 3.04234L14.8405 2.84169H14.59H5.42335ZM2.83335 15.0084V15.5084H3.33335H16.6684H17.1685L17.1684 15.0083L17.1667 6.67493L17.1666 6.17503H16.6667H3.33335H2.83335V6.67503V15.0084Z" fill="#2C2C2C" stroke="#2C2C2C"/>
</svg>
