<svg width="20" height="20" viewBox="0 0 20 20" fill="none" xmlns="http://www.w3.org/2000/svg">
<path fill-rule="evenodd" clip-rule="evenodd" d="M9.16669 5.83329C7.32574 5.83329 5.83335 7.32568 5.83335 9.16663C5.83335 11.0075 7.32574 12.5 9.16669 12.5C11.0076 12.5 12.5 11.0075 12.5 9.16663C12.5 7.32568 11.0076 5.83329 9.16669 5.83329ZM4.16669 9.16663C4.16669 6.4052 6.40526 4.16663 9.16669 4.16663C11.9281 4.16663 14.1667 6.4052 14.1667 9.16663C14.1667 10.2465 13.8244 11.2464 13.2423 12.0637L16.4226 15.244C16.748 15.5695 16.748 16.0971 16.4226 16.4225C16.0972 16.748 15.5695 16.748 15.2441 16.4225L12.0638 13.2422C11.2464 13.8243 10.2465 14.1666 9.16669 14.1666C6.40526 14.1666 4.16669 11.928 4.16669 9.16663Z" fill="#18A0FB"/>
</svg>
