<svg width="13" height="13" viewBox="0 0 13 13" fill="none" xmlns="http://www.w3.org/2000/svg">
<path fill-rule="evenodd" clip-rule="evenodd" d="M5.16669 1.83329C3.32574 1.83329 1.83335 3.32568 1.83335 5.16663C1.83335 7.00754 3.32574 8.49996 5.16669 8.49996C7.0076 8.49996 8.50002 7.00754 8.50002 5.16663C8.50002 3.32568 7.0076 1.83329 5.16669 1.83329ZM0.166687 5.16663C0.166687 2.4052 2.40526 0.166626 5.16669 0.166626C7.9281 0.166626 10.1667 2.4052 10.1667 5.16663C10.1667 6.24646 9.82435 7.24638 9.24227 8.06371L12.4226 11.244C12.748 11.5695 12.748 12.0971 12.4226 12.4225C12.0972 12.748 11.5695 12.748 11.2441 12.4225L8.06377 9.24221C7.24644 9.82429 6.24652 10.1666 5.16669 10.1666C2.40526 10.1666 0.166687 7.92804 0.166687 5.16663Z" fill="#18A0FB"/>
</svg>
