<svg width="4" height="11" viewBox="0 0 4 11" fill="none" xmlns="http://www.w3.org/2000/svg">
<path d="M3.13459 0.545454L2.95455 7.16548H1.26491L1.08026 0.545454H3.13459ZM2.10973 10.12C1.80504 10.12 1.54344 10.0123 1.32493 9.79688C1.10642 9.57836 0.998698 9.31676 1.00178 9.01207C0.998698 8.71046 1.10642 8.45194 1.32493 8.23651C1.54344 8.02107 1.80504 7.91335 2.10973 7.91335C2.40211 7.91335 2.65909 8.02107 2.88068 8.23651C3.10227 8.45194 3.21461 8.71046 3.21768 9.01207C3.21461 9.2152 3.16075 9.4014 3.05611 9.57067C2.95455 9.73686 2.82067 9.87074 2.65447 9.9723C2.48828 10.0708 2.3067 10.12 2.10973 10.12Z" fill="black"/>
</svg>
