<svg width="16" height="12" viewBox="0 0 16 12" fill="none" xmlns="http://www.w3.org/2000/svg">
<g filter="url(#filter0_d_1038_37)">
<path fill-rule="evenodd" clip-rule="evenodd" d="M4.86195 0.861886C5.1223 0.601539 5.54441 0.601539 5.80476 0.861886L8.00002 3.05716L10.1953 0.861886C10.4556 0.601539 10.8778 0.601539 11.1381 0.861886C11.3984 1.12224 11.3984 1.54435 11.1381 1.8047L8.94282 3.99996L11.1381 6.19523C11.3984 6.45556 11.3984 6.87769 11.1381 7.13803C10.8778 7.39836 10.4556 7.39836 10.1953 7.13803L8.00002 4.94276L5.80476 7.13803C5.54441 7.39836 5.1223 7.39836 4.86195 7.13803C4.6016 6.87769 4.6016 6.45556 4.86195 6.19523L7.05722 3.99996L4.86195 1.8047C4.6016 1.54435 4.6016 1.12224 4.86195 0.861886Z" fill="black"/>
<path d="M5.45122 6.78446L7.64647 4.58921L8.00002 4.23565L8.35357 4.58921L10.5488 6.78447C10.6139 6.84954 10.7195 6.84954 10.7845 6.78447C10.8496 6.7194 10.8496 6.61385 10.7845 6.54878L8.58927 4.35351L8.23571 3.99996L8.58927 3.64641L10.7845 1.45116C10.8496 1.38607 10.8496 1.28052 10.7845 1.21543C10.7195 1.15036 10.6139 1.15036 10.5488 1.21543L10.5488 1.21544L8.35357 3.41071L8.00002 3.76427L7.64647 3.41071L5.45121 1.21544C5.45121 1.21544 5.45121 1.21544 5.45121 1.21544C5.38612 1.15036 5.2806 1.15036 5.2155 1.21543C5.2155 1.21544 5.2155 1.21544 5.2155 1.21544M5.45122 6.78446L5.2155 1.21544M5.45122 6.78446C5.38613 6.84955 5.28058 6.84955 5.21549 6.78446C5.15042 6.71939 5.15042 6.61386 5.21549 6.54879L5.2155 6.54878L7.41077 4.35351L7.76433 3.99996L7.41077 3.6464L5.2155 1.45115M5.45122 6.78446L5.2155 1.45115M5.2155 1.21544C5.15042 1.28053 5.15042 1.38606 5.2155 1.45115M5.2155 1.21544L5.2155 1.45115M5.2155 1.45115C5.2155 1.45115 5.2155 1.45115 5.2155 1.45115M5.2155 1.45115L5.2155 1.45115" stroke="#2C2C2C"/>
</g>
<defs>
<filter id="filter0_d_1038_37" x="0.666687" y="0.666626" width="14.6666" height="14.6666" filterUnits="userSpaceOnUse" color-interpolation-filters="sRGB">
<feFlood flood-opacity="0" result="BackgroundImageFix"/>
<feColorMatrix in="SourceAlpha" type="matrix" values="0 0 0 0 0 0 0 0 0 0 0 0 0 0 0 0 0 0 127 0" result="hardAlpha"/>
<feOffset dy="4"/>
<feGaussianBlur stdDeviation="2"/>
<feComposite in2="hardAlpha" operator="out"/>
<feColorMatrix type="matrix" values="0 0 0 0 0 0 0 0 0 0 0 0 0 0 0 0 0 0 0.25 0"/>
<feBlend mode="normal" in2="BackgroundImageFix" result="effect1_dropShadow_1038_37"/>
<feBlend mode="normal" in="SourceGraphic" in2="effect1_dropShadow_1038_37" result="shape"/>
</filter>
</defs>
</svg>
