<svg width="16" height="16" viewBox="0 0 16 16" fill="none" xmlns="http://www.w3.org/2000/svg">
<g opacity="0.7" clip-path="url(#clip0_58_9)">
<g filter="url(#filter0_d_58_9)">
<path fill-rule="evenodd" clip-rule="evenodd" d="M4.86195 4.86189C5.1223 4.60154 5.54441 4.60154 5.80476 4.86189L8.00002 7.05716L10.1953 4.86189C10.4556 4.60154 10.8778 4.60154 11.1381 4.86189C11.3984 5.12224 11.3984 5.54435 11.1381 5.8047L8.94282 7.99996L11.1381 10.1952C11.3984 10.4556 11.3984 10.8777 11.1381 11.138C10.8778 11.3984 10.4556 11.3984 10.1953 11.138L8.00002 8.94276L5.80476 11.138C5.54441 11.3984 5.1223 11.3984 4.86195 11.138C4.6016 10.8777 4.6016 10.4556 4.86195 10.1952L7.05722 7.99996L4.86195 5.8047C4.6016 5.54435 4.6016 5.12224 4.86195 4.86189Z" fill="black"/>
<path d="M5.45122 10.7845L7.64647 8.58921L8.00002 8.23565L8.35357 8.58921L10.5488 10.7845C10.6139 10.8495 10.7195 10.8495 10.7845 10.7845C10.8496 10.7194 10.8496 10.6139 10.7845 10.5488L8.58927 8.35351L8.23571 7.99996L8.58927 7.64641L10.7845 5.45116C10.8496 5.38607 10.8496 5.28052 10.7845 5.21543C10.7195 5.15036 10.6139 5.15036 10.5488 5.21543L10.5488 5.21544L8.35357 7.41071L8.00002 7.76427L7.64647 7.41071L5.45121 5.21544C5.45121 5.21544 5.45121 5.21544 5.45121 5.21544C5.38612 5.15036 5.2806 5.15036 5.2155 5.21543C5.2155 5.21544 5.2155 5.21544 5.2155 5.21544M5.45122 10.7845L5.2155 5.21544M5.45122 10.7845C5.38613 10.8495 5.28058 10.8495 5.21549 10.7845C5.15042 10.7194 5.15042 10.6139 5.21549 10.5488L5.2155 10.5488L7.41077 8.35351L7.76433 7.99996L7.41077 7.6464L5.2155 5.45115M5.45122 10.7845L5.2155 5.45115M5.2155 5.21544C5.15042 5.28053 5.15042 5.38606 5.2155 5.45115M5.2155 5.21544L5.2155 5.45115M5.2155 5.45115C5.2155 5.45115 5.2155 5.45115 5.2155 5.45115M5.2155 5.45115L5.2155 5.45115" stroke="#2C2C2C"/>
</g>
</g>
<defs>
<filter id="filter0_d_58_9" x="0.666687" y="4.66663" width="14.6666" height="14.6666" filterUnits="userSpaceOnUse" color-interpolation-filters="sRGB">
<feFlood flood-opacity="0" result="BackgroundImageFix"/>
<feColorMatrix in="SourceAlpha" type="matrix" values="0 0 0 0 0 0 0 0 0 0 0 0 0 0 0 0 0 0 127 0" result="hardAlpha"/>
<feOffset dy="4"/>
<feGaussianBlur stdDeviation="2"/>
<feComposite in2="hardAlpha" operator="out"/>
<feColorMatrix type="matrix" values="0 0 0 0 0 0 0 0 0 0 0 0 0 0 0 0 0 0 0.25 0"/>
<feBlend mode="normal" in2="BackgroundImageFix" result="effect1_dropShadow_58_9"/>
<feBlend mode="normal" in="SourceGraphic" in2="effect1_dropShadow_58_9" result="shape"/>
</filter>
<clipPath id="clip0_58_9">
<rect width="16" height="16" fill="white"/>
</clipPath>
</defs>
</svg>
